<svg width="16" height="18" viewBox="0 0 16 18" fill="none" xmlns="http://www.w3.org/2000/svg">
<path d="M1.80322 17.8H0.202561C0.253708 15.8038 1.06899 13.9001 2.48457 12.4846C3.94735 11.0218 5.93131 10.2 8 10.2C10.0687 10.2 12.0526 11.0218 13.5154 12.4846C14.931 13.9001 15.7463 15.8038 15.7974 17.8H14.1968C14.1461 16.2282 13.4996 14.7314 12.3841 13.6159C11.2213 12.4532 9.64434 11.8 8 11.8C6.35566 11.8 4.77866 12.4532 3.61594 13.6159C2.50044 14.7314 1.8539 16.2282 1.80322 17.8ZM3.2 5C3.2 2.34903 5.34903 0.2 8 0.2C10.651 0.2 12.8 2.34903 12.8 5C12.8 7.65097 10.651 9.8 8 9.8C5.34903 9.8 3.2 7.65097 3.2 5ZM8 8.2C9.76731 8.2 11.2 6.76731 11.2 5C11.2 3.23269 9.76731 1.8 8 1.8C6.23269 1.8 4.8 3.23269 4.8 5C4.8 6.76731 6.23269 8.2 8 8.2Z" fill="#00252E" stroke="white" stroke-width="0.4"/>
</svg>
