<svg width="24" height="24" viewBox="0 0 24 24" fill="none" xmlns="http://www.w3.org/2000/svg">
<g clip-path="url(#clip0)">
<path d="M10.5 4.18C10.776 4.18 11 3.956 11 3.68V2C11 1.449 11.449 1 12 1C12.551 1 13 1.449 13 2V3.68C13 3.956 13.224 4.18 13.5 4.18C13.776 4.18 14 3.957 14 3.68V2C14 0.897 13.103 0 12 0C10.897 0 10 0.897 10 2V3.68C10 3.957 10.224 4.18 10.5 4.18Z" fill="#00252E"/>
<path d="M12 24C13.93 24 15.5 22.43 15.5 20.5C15.5 20.224 15.276 20 15 20C14.724 20 14.5 20.224 14.5 20.5C14.5 21.878 13.378 23 12 23C10.622 23 9.5 21.878 9.5 20.5C9.5 20.224 9.276 20 9 20C8.724 20 8.5 20.224 8.5 20.5C8.5 22.43 10.07 24 12 24Z" fill="#00252E"/>
<path d="M3.5 21H20.5C21.327 21 22 20.327 22 19.5C22 19.061 21.809 18.646 21.475 18.36C19.899 17.028 19 15.09 19 13.038V10C19 6.14 15.86 3 12 3C8.14 3 5 6.14 5 10V13.038C5 15.091 4.101 17.028 2.533 18.353C2.191 18.646 2 19.061 2 19.5C2 20.327 2.672 21 3.5 21ZM12 4C15.309 4 18 6.691 18 10V13.038C18 15.386 19.028 17.601 20.821 19.117C20.936 19.215 21 19.354 21 19.5C21 19.776 20.776 20 20.5 20H3.5C3.224 20 3 19.776 3 19.5C3 19.354 3.064 19.215 3.175 19.12C4.971 17.601 6 15.385 6 13.038V10C6 6.691 8.691 4 12 4Z" fill="#00252E"/>
</g>
<defs>
<clipPath id="clip0">
<rect width="24" height="24" fill="white" transform="matrix(-1 0 0 1 24 0)"/>
</clipPath>
</defs>
</svg>
