<svg width="22" height="22" viewBox="0 0 22 22" fill="none" xmlns="http://www.w3.org/2000/svg">
<g clip-path="url(#clip0)">
<path d="M9.62516 3.83167C9.87816 3.83167 10.0835 3.62633 10.0835 3.37333V1.83333C10.0835 1.32825 10.4951 0.916667 11.0002 0.916667C11.5052 0.916667 11.9168 1.32825 11.9168 1.83333V3.37333C11.9168 3.62633 12.1222 3.83167 12.3752 3.83167C12.6282 3.83167 12.8335 3.62725 12.8335 3.37333V1.83333C12.8335 0.82225 12.0112 0 11.0002 0C9.98908 0 9.16683 0.82225 9.16683 1.83333V3.37333C9.16683 3.62725 9.37217 3.83167 9.62516 3.83167Z" fill="#00252E"/>
<path d="M11.0002 22C12.7693 22 14.2085 20.5608 14.2085 18.7917C14.2085 18.5387 14.0032 18.3333 13.7502 18.3333C13.4972 18.3333 13.2918 18.5387 13.2918 18.7917C13.2918 20.0548 12.2633 21.0833 11.0002 21.0833C9.73699 21.0833 8.70849 20.0548 8.70849 18.7917C8.70849 18.5387 8.50316 18.3333 8.25016 18.3333C7.99716 18.3333 7.79183 18.5387 7.79183 18.7917C7.79183 20.5608 9.23099 22 11.0002 22Z" fill="#00252E"/>
<path d="M3.20866 19.25H18.792C19.5501 19.25 20.167 18.6331 20.167 17.875C20.167 17.4726 19.9919 17.0922 19.6857 16.83C18.2411 15.609 17.417 13.8325 17.417 11.9515V9.16667C17.417 5.62833 14.5387 2.75 11.0003 2.75C7.46199 2.75 4.58366 5.62833 4.58366 9.16667V11.9515C4.58366 13.8334 3.75957 15.609 2.32224 16.8236C2.00874 17.0922 1.83366 17.4726 1.83366 17.875C1.83366 18.6331 2.44966 19.25 3.20866 19.25ZM11.0003 3.66667C14.0336 3.66667 16.5003 6.13342 16.5003 9.16667V11.9515C16.5003 14.1038 17.4427 16.1343 19.0862 17.5239C19.1917 17.6138 19.2503 17.7412 19.2503 17.875C19.2503 18.128 19.045 18.3333 18.792 18.3333H3.20866C2.95566 18.3333 2.75032 18.128 2.75032 17.875C2.75032 17.7412 2.80899 17.6138 2.91074 17.5267C4.55707 16.1343 5.50032 14.1029 5.50032 11.9515V9.16667C5.50032 6.13342 7.96707 3.66667 11.0003 3.66667Z" fill="#00252E"/>
</g>
<defs>
<clipPath id="clip0">
<rect width="22" height="22" fill="white" transform="matrix(-1 0 0 1 22 0)"/>
</clipPath>
</defs>
</svg>
