<svg width="30" height="30" viewBox="0 0 30 30" fill="none" xmlns="http://www.w3.org/2000/svg">
<path d="M19.1819 28.7246C20.2687 26.5508 21.5639 22.8495 19.7546 21.2534C18.0868 21.5038 16.7382 21.5054 15.6409 21.259C12.8778 20.6386 12.0032 18.4495 12.7639 15.646C9.04639 19.0433 8.88944 24.0526 10.2676 28.8762C10.4914 29.6597 9.61437 30.3015 8.9352 29.8488C8.7039 29.6946 3.27125 26.0076 3.27125 20.3299C3.27125 11.0285 13.8165 10.6283 13.8165 0.879879C13.8165 0.135212 14.689 -0.27236 15.26 0.206626C19.4739 3.74144 27.1417 12.2386 26.7114 20.0536C26.4981 23.928 24.3932 27.2235 20.4552 29.8488C19.7104 30.3452 18.7803 29.5276 19.1819 28.7246Z" fill="#3D92A7"/>
</svg>
