<svg width="180" height="180" viewBox="0 0 180 180" fill="none" xmlns="http://www.w3.org/2000/svg">
<g clip-path="url(#clip0)">
<path fill-rule="evenodd" clip-rule="evenodd" d="M125.768 120.096L111.325 126.246C110.681 127.186 110.217 128.814 109.859 131.093C109.502 133.372 109.144 135.868 108.822 138.581C108.465 141.33 108.072 144.007 107.643 146.648C107.214 149.289 106.606 151.459 105.784 153.123L102.745 151.531C102.602 150.301 102.673 148.601 102.888 146.395C103.138 144.152 103.424 141.837 103.817 139.377C104.211 136.953 104.64 134.602 105.104 132.287C105.533 129.972 105.891 128.127 106.177 126.716L103.996 124.98C104.139 124.22 104.461 123.678 104.997 123.244C105.533 122.846 106.141 122.556 106.82 122.448C107.571 119.481 108.322 116.226 109.073 112.681C109.859 109.136 110.681 105.518 111.575 101.72C112.433 97.9582 113.362 94.16 114.328 90.2894C115.293 86.455 116.365 82.7291 117.545 79.1479C118.725 75.5667 120.048 72.1664 121.37 68.9831C122.765 65.836 124.266 63.0145 125.911 60.5908C127.233 60.8079 128.485 61.3143 129.593 62.0378C130.701 62.7612 131.702 63.6656 132.524 64.7146C133.382 65.7636 134.097 66.885 134.705 68.1149C135.277 69.3448 135.706 70.5747 135.992 71.877C136.278 73.1069 136.6 75.0964 136.957 77.8456C137.315 80.631 137.637 83.8505 137.958 87.6125C138.28 91.3384 138.602 95.3899 138.888 99.7669C139.21 104.144 139.46 108.593 139.603 113.079C139.782 117.528 139.925 121.869 139.96 126.137C140.032 130.37 139.996 134.24 139.853 137.713C139.746 141.186 139.46 144.116 139.102 146.431C138.745 148.782 138.209 150.301 137.565 151.025C136.099 150.41 134.884 149.686 133.883 148.782C132.882 147.878 132.06 146.937 131.38 145.816C130.701 144.695 130.165 143.465 129.736 142.162C129.307 140.824 128.914 139.449 128.592 137.966C128.27 136.555 128.056 135.145 127.984 133.698C127.877 132.287 127.841 130.84 127.805 129.465C127.77 128.055 127.734 126.644 127.662 125.197C127.591 123.786 127.412 122.339 127.126 120.892L125.768 120.096ZM126.268 71.3344C125.839 71.8408 125.339 72.8175 124.731 74.3368C124.123 75.8561 123.444 77.7009 122.693 79.9075C121.942 82.1141 121.192 84.5378 120.369 87.2146C119.583 89.8915 118.761 92.6045 117.974 95.3537C117.223 98.1391 116.473 100.852 115.758 103.601C115.078 106.314 114.435 108.81 113.934 111.089C113.398 113.368 113.005 115.358 112.755 117.022C112.469 118.686 112.361 119.843 112.433 120.531C113.291 120.494 114.113 120.35 114.935 120.169C115.758 119.952 116.616 119.771 117.438 119.554C118.189 119.373 119.047 119.192 120.012 119.011C120.977 118.794 121.942 118.577 122.872 118.288C123.801 117.998 124.695 117.6 125.41 117.13C126.161 116.66 126.733 116.045 127.09 115.322C127.162 115.177 127.198 114.453 127.269 113.187C127.305 111.957 127.341 110.33 127.341 108.34C127.376 106.387 127.341 104.144 127.305 101.72C127.269 99.2604 127.269 96.7283 127.198 94.16C127.162 91.5916 127.126 89.0233 127.09 86.5273C127.019 83.9952 126.983 81.6801 126.876 79.6182C126.769 77.5563 126.697 75.8199 126.626 74.373C126.518 72.926 126.447 72.0217 126.34 71.6238L126.268 71.3344Z" fill="white"/>
<path fill-rule="evenodd" clip-rule="evenodd" d="M180 73.5767C179.893 73.8299 179.642 74.0831 179.178 74.3363C179.428 74.0469 179.678 73.7575 179.928 73.4681L180 73.5767ZM171.527 85.6587C172.028 88.3717 172.135 91.2656 171.849 94.3042C171.599 97.4874 171.027 100.743 170.276 104.035C169.489 107.363 168.631 110.582 167.666 113.838C166.308 118.432 165.199 123.098 164.02 127.729C162.661 133.01 161.517 137.459 159.658 142.632L159.372 143.428C157.907 147.443 156.155 151.495 154.01 155.618C146.931 169.003 134.455 181.302 118.332 179.963C108.679 179.131 85.5133 173.38 77.8629 167.664C77.2551 167.194 76.7546 166.76 76.5044 165.964C76.4329 165.53 76.5759 165.024 77.0049 164.409C77.4339 163.83 78.1131 163.468 79.1141 163.36C80.3296 163.36 84.0833 165.53 85.5491 166.217C97.0247 171.535 102.28 171.68 114.721 171.318C120.763 171.137 125.053 169.509 129.986 165.964C140.139 158.657 146.145 145.454 152.115 134.674C156.87 126.101 159.909 117.926 163.054 108.665L163.197 108.303C165.736 100.852 168.381 92.5317 171.027 86.7439C171.205 86.346 171.384 85.9842 171.527 85.6587Z" fill="white"/>
<path fill-rule="evenodd" clip-rule="evenodd" d="M103.46 42.9383C102.959 44.0596 102.244 45.0363 101.243 45.9407C100.242 46.8088 99.0984 47.6047 97.8829 48.292C96.6316 48.9431 95.3447 49.5219 94.0577 49.9559C92.7707 50.4262 91.5909 50.7879 90.5184 51.0412C89.8035 51.222 88.9455 51.3667 87.873 51.5114C86.8005 51.6199 86.014 51.837 85.442 52.1264C85.2275 52.2349 84.9057 52.8498 84.5482 54.0074C84.1907 55.165 83.6902 56.6119 83.0825 58.3121C82.4748 60.0122 81.7598 61.8932 80.9018 63.919C80.0795 65.9809 79.1143 67.8981 78.0775 69.6706C77.005 71.4793 75.8253 73.0709 74.5026 74.4455C73.1798 75.8201 71.7141 76.6521 70.1053 77.05C68.8541 77.3394 67.3884 77.0138 65.7796 76.001C64.1351 75.0243 62.5621 73.7944 61.0249 72.2751C59.4877 70.7196 58.1292 69.128 57.0209 67.3916C55.8769 65.6553 55.1619 64.2084 54.8759 62.9785C54.5542 61.64 54.4112 59.8675 54.4112 57.5524C54.3754 55.2735 54.5184 52.7775 54.7687 50.0645C55.0189 47.3876 55.4479 44.6022 55.9842 41.7807C56.5204 38.9592 57.1997 36.3547 58.0934 34.0034C58.9514 31.6521 59.9524 29.6264 61.0964 27.9985C62.2761 26.3346 63.5989 25.3217 65.0646 24.9961C65.5294 24.8876 65.9584 24.9238 66.3159 25.1047C66.6734 25.2855 67.0309 25.5026 67.3884 25.7558C67.7459 26.009 68.1034 26.226 68.4966 26.3707C68.8899 26.5516 69.3188 26.5878 69.7836 26.4793C70.3913 26.3346 70.8918 26.0813 71.3566 25.7196C71.7856 25.3579 72.3576 25.1047 72.9296 24.96C74.5741 24.5621 76.0398 24.7429 77.3983 25.4664C78.7568 26.1899 79.9365 27.2027 80.9375 28.505C81.9385 29.8072 82.7965 31.2542 83.4757 32.8458C84.155 34.4013 84.6555 35.8844 84.9772 37.2228C85.1917 38.1995 85.299 39.2124 85.299 40.1891C85.299 41.1658 85.2632 42.1424 85.2275 43.083C85.156 44.0235 85.156 45.0002 85.1202 45.9407C85.0845 46.8812 85.1917 47.8217 85.4062 48.726C85.442 48.9431 85.6565 49.0878 85.9782 49.1601C86.3 49.1963 86.6575 49.1963 87.0865 49.124C87.5155 49.0516 87.873 48.9431 88.302 48.8707C88.6952 48.7622 88.9812 48.6899 89.16 48.6537C90.8402 48.2558 92.2344 47.8579 93.3069 47.4961C94.3794 47.0982 95.2374 46.7365 95.9524 46.3386C96.6317 45.9407 97.2037 45.5789 97.6326 45.181C98.0616 44.7831 98.4906 44.4214 98.8839 44.0596C99.3129 43.6979 99.7061 43.3362 100.207 42.9744C100.636 42.6127 101.279 42.251 102.03 41.9254L103.46 42.9383ZM68.8898 45.8683C68.4251 47.2429 67.9604 48.9793 67.4599 51.1135C66.9594 53.2477 66.6019 55.4905 66.2444 57.7695C65.9226 60.0846 65.7439 62.3273 65.6366 64.4977C65.5651 66.6682 65.6724 68.4045 65.9941 69.7791C66.1729 70.5387 66.4589 71.009 66.8521 71.1175C67.2811 71.2622 67.7816 71.2622 68.4251 71.1175C70.3913 70.6473 72.1073 69.7791 73.5731 68.513C75.0388 67.2469 76.29 65.7277 77.3625 63.9913C78.3993 62.255 79.2215 60.374 79.7935 58.4206C80.3655 56.431 80.6873 54.5138 80.8303 52.7051C79.7578 52.3072 78.6853 51.9093 77.577 51.4752C76.5045 51.005 75.4321 50.5709 74.3953 50.0283C73.3586 49.5219 72.3576 48.9069 71.4638 48.2196C70.5701 47.5685 69.7121 46.7727 68.8898 45.8683ZM73.3943 30.4945C73.6446 30.9648 73.9663 31.3989 74.2523 31.7606C74.6098 32.1223 74.8243 32.5564 74.9316 33.099C75.0388 33.6055 74.8601 34.3289 74.3596 35.2333C73.8591 36.1376 73.2871 37.1143 72.6436 38.1272C71.9643 39.14 71.4281 40.1891 70.9276 41.2019C70.4628 42.2148 70.2841 43.0468 70.4628 43.7703C70.6058 44.4214 71.1063 45.1087 71.9286 45.796C72.7508 46.5194 73.7161 47.1344 74.7886 47.7132C75.861 48.2558 76.9693 48.6899 78.006 49.0516C79.0785 49.3772 79.9008 49.4495 80.5443 49.2686C80.9733 49.1601 81.1878 48.4367 81.295 47.0621C81.3665 45.6513 81.3308 44.0958 81.2235 42.3595C81.1163 40.6231 80.9375 38.923 80.7588 37.3313C80.5443 35.7035 80.3655 34.6183 80.2583 34.0757C79.9008 32.5203 79.293 31.2542 78.5065 30.3498C77.6843 29.4093 76.433 29.1561 74.6456 29.5902L73.3943 30.4945Z" fill="white"/>
<path fill-rule="evenodd" clip-rule="evenodd" d="M60.5243 79.0757C67.7815 79.1842 75.2532 79.0033 82.4746 79.5098C84.4409 79.6545 87.6941 79.8353 89.3743 80.8844C93.0923 83.1633 96.6673 86.3466 98.848 90.181C99.992 92.2067 100.743 94.4495 101.279 96.7284C101.78 98.8626 101.958 101.178 101.887 103.746C101.815 106.314 101.458 108.919 100.886 111.632C100.278 114.345 99.42 116.913 98.3118 119.482C97.2035 122.05 95.9166 124.401 94.3436 126.535C92.8063 128.706 91.0546 130.515 89.0883 132.034C87.1221 133.553 85.0129 134.602 82.7249 135.145C82.1886 135.253 81.2949 135.398 80.0079 135.579C78.7209 135.724 77.3624 135.832 75.9682 135.832C74.5739 135.868 73.2869 135.76 72.1787 135.507C71.0704 135.253 70.427 134.819 70.284 134.168C70.2125 133.843 70.4984 133.445 71.1419 132.938C71.7854 132.468 72.5719 131.998 73.4657 131.527C74.3594 131.093 75.2532 130.659 76.1112 130.298C76.9692 129.936 77.5054 129.646 77.7557 129.466C79.6146 128.344 81.2591 126.897 82.6891 125.125C84.1191 123.352 85.3704 121.363 86.4429 119.192C87.4796 116.986 88.3733 114.671 89.0168 112.211C89.6603 109.751 90.1251 107.291 90.4468 104.867C90.7328 102.408 90.8401 99.984 90.7686 97.6327C90.6613 94.3771 90.1608 90.0001 88.5521 87.1786C87.2294 84.7911 87.3724 83.9591 84.6911 82.6207C81.2949 80.9205 77.5769 80.4141 73.8232 80.3779C73.1082 80.3779 71.9284 80.3056 71.6782 81.1376C71.3922 81.9696 71.4279 84.2485 71.1777 85.4061C70.9989 86.3828 70.6772 87.2871 70.4627 88.3C70.2482 89.4937 70.1052 90.7236 69.998 91.9173V92.0982C69.855 94.1239 69.7477 96.3667 69.712 98.8265C69.6762 101.286 69.712 103.746 69.7477 106.242C69.7835 108.774 69.8192 111.198 69.8192 113.585C69.8192 115.937 69.7835 118.035 69.6762 119.88C69.5332 121.724 69.3902 123.244 69.1042 124.437C68.854 125.631 68.425 126.282 67.8887 126.427H67.5312C66.7447 125.92 65.851 125.45 64.9572 125.016C64.0635 124.582 63.2055 124.148 62.3475 123.605C61.561 123.099 60.846 122.484 60.2383 121.761C59.6305 121.037 59.2015 120.133 58.9513 119.048C58.7368 118.216 58.6295 116.515 58.558 114.056C58.4865 111.56 58.5223 108.521 58.5938 105.048C58.6653 101.539 58.8083 97.6689 58.987 93.4728C59.2015 89.2766 59.416 84.972 59.7378 80.6311C59.7735 80.1247 59.8093 79.6183 59.845 79.148L60.5243 79.0757Z" fill="white"/>
<path fill-rule="evenodd" clip-rule="evenodd" d="M51.0865 2.0619C51.0507 2.49598 50.6575 2.93006 49.9783 3.2918C49.299 3.65354 48.5483 3.9791 47.7618 4.26849C46.9753 4.5217 46.296 4.81109 45.6883 5.10048C45.0448 5.38987 44.7588 5.60691 44.8303 5.86013C44.9733 6.40273 45.152 6.94534 45.438 7.41559C45.724 7.88585 46.01 8.39228 46.3675 8.86254C46.6893 9.3328 47.011 9.83923 47.3328 10.3457C47.6188 10.8521 47.8333 11.3947 47.9763 11.9735C48.5483 14.3971 48.9058 17.0016 49.0845 19.7508C49.2633 22.4638 49.299 25.2492 49.2633 28.0346C49.1918 30.8561 49.0845 33.6053 48.9058 36.3907C48.727 39.1399 48.6198 41.7805 48.584 44.3489C48.5125 46.3746 48.4053 48.8706 48.298 51.9092C48.1908 54.9477 47.9763 58.2034 47.6545 61.6399C47.3328 65.0764 46.8323 68.549 46.1888 72.0579C45.5095 75.5667 44.6515 78.8223 43.5075 81.7886C42.3636 84.7548 40.9693 87.287 39.2533 89.3489C37.5373 91.4108 35.4996 92.7492 33.0329 93.328C32.1391 93.545 30.9594 93.5088 29.4579 93.2195C27.9564 92.9301 26.3119 92.496 24.5602 91.9172C22.7727 91.3384 21.021 90.6511 19.162 89.8191C17.3387 89.0233 15.6585 88.119 14.1212 87.287C12.6198 86.3826 11.3328 85.5145 10.296 84.6101C9.25928 83.742 8.65154 82.9823 8.50854 82.295C8.43704 81.9333 8.43704 81.4992 8.61579 80.9566C8.79454 80.4502 9.08053 80.1246 9.54528 80.0161C9.79553 79.9437 10.439 80.3416 11.44 81.1375C12.4768 81.9333 13.6923 82.8014 15.158 83.7058C16.588 84.574 18.2682 85.3336 20.0915 85.9486C21.9504 86.5635 23.8094 86.6358 25.7399 86.1656C28.2782 85.5506 30.3516 84.0313 31.8889 81.5715C33.4261 79.1117 34.6059 76.1455 35.4639 72.6005C36.2861 69.0916 36.8223 65.2572 37.0726 61.1334C37.3228 56.9735 37.3943 52.922 37.3228 48.9429C37.2513 44.9638 37.1441 41.2741 36.9296 37.91C36.7508 34.5096 36.6078 31.8328 36.5363 29.8071C36.4291 26.4068 36.4291 23.0064 36.5721 19.6061C36.6793 16.242 36.7866 12.8416 36.8223 9.47749L36.0359 9.22428C34.5344 9.58601 33.2831 9.91158 32.3536 10.2733C31.3884 10.5989 30.5661 10.8883 29.8511 11.1053C29.1361 11.3223 28.4927 11.467 27.8849 11.5756C27.3129 11.6479 26.6337 11.6479 25.9187 11.5032C25.1679 11.3585 24.3457 11.1415 23.3804 10.8159C22.4152 10.4904 21.1997 9.98392 19.6982 9.3328C19.3765 9.1881 19.0547 9.00723 18.8045 8.89871C18.5542 8.75402 18.3755 8.5008 18.304 8.13907C18.1967 7.63264 18.2682 7.19855 18.4827 6.83682C18.733 6.47508 19.019 6.18569 19.448 5.93248C19.8055 5.67926 20.2345 5.49839 20.6992 5.31752C21.164 5.17283 21.5929 5.02813 21.9504 4.95579C25.5254 4.05145 29.2076 3.2918 32.8899 2.67685C36.5363 2.0619 40.2186 1.3746 43.865 0.578778C44.58 0.39791 45.2235 0.253215 45.8313 0.144695C46.4748 0.0361736 47.0468 0 47.583 0C48.1193 0.0361736 48.6555 0.144695 49.1918 0.39791C49.6923 0.651125 50.2643 1.08521 50.8363 1.70016L51.0865 2.0619Z" fill="white"/>
<path d="M0.250248 110.293C0.107249 110.04 0 109.751 0 109.461L0.929493 108.883C0.965243 109.353 1.14399 109.751 1.53724 110.04C1.85899 110.293 2.21648 110.366 2.57398 110.257C2.93148 110.149 3.32473 109.859 3.71797 109.353L10.4747 100.924L11.2969 101.576L4.54022 110.004C3.93247 110.728 3.32473 111.198 2.68123 111.379C2.03774 111.56 1.42999 111.415 0.857994 110.945C0.607746 110.8 0.393247 110.547 0.250248 110.293ZM12.0477 99.0073C12.0477 98.7541 12.1549 98.537 12.2979 98.32C12.4409 98.1391 12.6554 97.9944 12.9057 97.9221C13.1559 97.8497 13.3347 97.9221 13.5134 98.0306C13.6922 98.1753 13.7637 98.3561 13.7637 98.6094C13.7637 98.8626 13.6922 99.0796 13.5134 99.2605C13.3347 99.4775 13.1202 99.6222 12.9057 99.6584C12.6554 99.7307 12.4767 99.6584 12.2979 99.5499C12.1192 99.4414 12.0477 99.2243 12.0477 99.0073Z" fill="white"/>
<path d="M8.50832 111.632C8.32957 110.908 8.32957 110.113 8.54407 109.317C8.75856 108.485 9.18756 107.689 9.79531 106.929C10.4031 106.17 11.0823 105.591 11.833 105.193C12.5838 104.795 13.3345 104.65 14.0853 104.687C14.836 104.723 15.4795 104.976 16.0515 105.482C16.6235 105.953 17.0168 106.568 17.1955 107.291C17.3743 108.015 17.3743 108.774 17.1598 109.606C16.9453 110.438 16.5163 111.234 15.9085 111.994C15.3008 112.753 14.6215 113.332 13.8708 113.73C13.12 114.128 12.3693 114.309 11.6185 114.273C10.8678 114.236 10.2243 113.983 9.65231 113.513C9.11606 112.97 8.72281 112.355 8.50832 111.632ZM11.9045 113.079C12.4408 113.115 13.0128 112.97 13.5848 112.645C14.1568 112.319 14.6573 111.885 15.1578 111.27C15.6583 110.655 15.98 110.076 16.1588 109.425C16.3375 108.81 16.3733 108.232 16.2303 107.689C16.0873 107.146 15.8013 106.712 15.3723 106.351C14.9433 105.989 14.4428 105.808 13.9065 105.772C13.3703 105.736 12.7983 105.88 12.2263 106.206C11.6543 106.531 11.118 106.966 10.6533 107.581C10.1886 108.195 9.83106 108.774 9.65231 109.425C9.47356 110.04 9.43781 110.619 9.58081 111.162C9.72381 111.704 10.0098 112.138 10.4388 112.5C10.8678 112.862 11.3325 113.043 11.9045 113.079Z" fill="white"/>
<path d="M25.0605 113.658C25.2393 114.381 25.2393 115.141 24.989 115.937C24.7745 116.769 24.3456 117.564 23.7021 118.324C23.0943 119.084 22.3793 119.699 21.6643 120.097C20.9136 120.494 20.1628 120.675 19.4478 120.639C18.7328 120.603 18.0536 120.35 17.5173 119.88C17.0169 119.482 16.6594 118.939 16.4806 118.36C16.3019 117.745 16.3019 117.094 16.4806 116.371L15.2294 117.926L14.4429 117.275L23.3446 106.206L24.1668 106.857L20.3773 111.56C21.0208 111.27 21.6643 111.126 22.2721 111.198C22.8798 111.27 23.4161 111.487 23.9166 111.885C24.4885 112.355 24.846 112.934 25.0605 113.658ZM19.6623 119.445C20.1986 119.482 20.7706 119.337 21.3426 119.011C21.9146 118.686 22.4508 118.252 22.9156 117.637C23.3803 117.022 23.7378 116.443 23.9166 115.792C24.0953 115.177 24.1311 114.598 23.9881 114.056C23.8451 113.513 23.5591 113.079 23.1658 112.717C22.7368 112.355 22.2363 112.175 21.7001 112.138C21.1638 112.102 20.5918 112.247 20.0198 112.572C19.4478 112.898 18.9116 113.332 18.4468 113.947C17.9821 114.562 17.6246 115.141 17.4458 115.792C17.2671 116.407 17.2313 116.986 17.3743 117.528C17.5173 118.071 17.8033 118.505 18.2323 118.867C18.6256 119.228 19.0903 119.409 19.6623 119.445Z" fill="white"/>
<path d="M36.6079 117.058L27.7063 128.127L26.9198 127.476L28.171 125.92C27.4918 126.246 26.8483 126.391 26.2405 126.318C25.6328 126.282 25.0608 126.029 24.5603 125.631C23.9883 125.161 23.6308 124.582 23.4163 123.858C23.2375 123.135 23.2375 122.375 23.4878 121.543C23.7023 120.711 24.1313 119.915 24.7748 119.156C25.3825 118.396 26.0975 117.781 26.8125 117.383C27.5633 116.985 28.2783 116.804 29.029 116.841C29.744 116.877 30.3875 117.13 30.9595 117.6C31.46 117.998 31.7817 118.505 31.9605 119.083C32.1392 119.662 32.1392 120.313 31.9962 121.037L35.7857 116.334L36.6079 117.058ZM26.8125 125.341C27.3488 125.378 27.9208 125.233 28.4927 124.907C29.0647 124.582 29.601 124.148 30.0657 123.533C30.5305 122.918 30.888 122.339 31.0667 121.688C31.2455 121.037 31.2812 120.494 31.1382 119.952C30.9952 119.409 30.7092 118.975 30.316 118.649C29.887 118.288 29.3865 118.107 28.8502 118.071C28.314 118.034 27.742 118.179 27.17 118.505C26.598 118.83 26.0618 119.264 25.597 119.879C25.1323 120.494 24.7748 121.073 24.596 121.724C24.4173 122.339 24.3815 122.918 24.5245 123.46C24.6675 124.003 24.9535 124.437 25.3825 124.799C25.8115 125.124 26.2763 125.305 26.8125 125.341Z" fill="white"/>
<path d="M39.6462 126.065C39.6462 126.934 39.2529 127.838 38.4664 128.851L34.5697 133.734L33.7832 133.083L34.7485 131.853C34.248 132.106 33.7117 132.215 33.1755 132.143C32.6392 132.07 32.1387 131.853 31.6382 131.455C30.959 130.913 30.6015 130.261 30.53 129.502C30.4585 128.742 30.7087 128.055 31.2807 127.368C31.817 126.716 32.4247 126.319 33.1397 126.21C33.8547 126.102 34.6055 126.391 35.3919 127.042L37.3224 128.598L37.7157 128.127C38.2519 127.44 38.5379 126.825 38.5379 126.21C38.5379 125.631 38.2519 125.089 37.6799 124.618C37.2867 124.293 36.8577 124.076 36.3929 123.967C35.8924 123.859 35.4277 123.823 34.9272 123.895L35.2132 122.81C35.7852 122.737 36.3572 122.774 36.9292 122.918C37.5012 123.099 38.0374 123.352 38.5022 123.75C39.2172 124.474 39.6462 125.233 39.6462 126.065ZM33.9262 131.311C34.4625 131.311 35.0344 131.13 35.6064 130.732L36.6432 129.466L34.7485 127.91C33.7117 127.078 32.818 127.114 32.0672 128.055C31.7097 128.525 31.531 128.995 31.6025 129.466C31.674 129.936 31.9242 130.406 32.4247 130.768C32.8895 131.13 33.39 131.311 33.9262 131.311Z" fill="white"/>
<path d="M48.0118 131.78L37.9303 138.111C37.1081 138.653 36.3931 138.943 35.8211 138.979C35.2491 139.015 34.7486 138.87 34.2839 138.509C33.9979 138.255 33.7834 138.002 33.6046 137.677C33.4616 137.351 33.3901 136.989 33.3901 136.591L34.3911 136.121C34.3911 136.772 34.5699 137.279 34.9989 137.604C35.2849 137.821 35.5709 137.93 35.9284 137.894C36.2859 137.858 36.7506 137.677 37.2869 137.315L38.1448 136.772L41.7556 126.716L42.6136 127.403L39.5391 135.94L47.1538 131.129L48.0118 131.78Z" fill="white"/>
<path d="M42.2207 139.775C42.2207 139.522 42.328 139.269 42.5067 139.052C42.6854 138.835 42.8999 138.69 43.1502 138.618C43.4004 138.545 43.6149 138.618 43.7579 138.726C43.9367 138.871 44.0082 139.052 44.0082 139.305C44.0082 139.558 43.9009 139.811 43.7222 140.029C43.5434 140.246 43.3289 140.39 43.0787 140.463C42.8284 140.535 42.6139 140.499 42.4352 140.354C42.2922 140.246 42.2207 140.028 42.2207 139.775Z" fill="white"/>
<path d="M54.6256 138.4C54.6256 139.269 54.2324 140.173 53.4459 141.186L49.5492 146.069L48.7627 145.418L49.7279 144.188C49.2274 144.441 48.6912 144.55 48.1549 144.478C47.6187 144.405 47.1182 144.188 46.6177 143.79C45.9385 143.248 45.581 142.597 45.5095 141.837C45.438 141.077 45.6882 140.39 46.2602 139.703C46.7965 139.052 47.4042 138.654 48.1192 138.545C48.8342 138.437 49.5849 138.726 50.3714 139.377L52.3019 140.933L52.6952 140.462C53.2314 139.775 53.5174 139.16 53.5174 138.545C53.5174 137.966 53.2314 137.424 52.6594 136.953C52.2662 136.628 51.8372 136.411 51.3724 136.302C50.8719 136.194 50.4072 136.158 49.9067 136.23L50.1927 135.145C50.7647 135.072 51.3367 135.109 51.9087 135.253C52.4807 135.434 53.0169 135.687 53.4817 136.085C54.2324 136.809 54.6256 137.532 54.6256 138.4ZM48.9414 143.609C49.4777 143.609 50.0497 143.429 50.6217 143.031L51.6584 141.765L49.7637 140.209C48.7269 139.377 47.8332 139.413 47.0825 140.354C46.725 140.824 46.5462 141.294 46.6177 141.765C46.6892 142.235 46.9395 142.669 47.44 143.067C47.869 143.429 48.3694 143.609 48.9414 143.609Z" fill="white"/>
<path d="M56.6991 150.482L55.9841 151.35L51.0864 147.335L51.6584 146.648L60.4529 143.501L56.7349 140.426L57.4499 139.521L62.2046 143.428L61.6326 144.116L52.8024 147.263L56.6991 150.482Z" fill="white"/>
</g>
<defs>
<clipPath id="clip0">
<rect width="180" height="180" fill="white"/>
</clipPath>
</defs>
</svg>
