<svg width="32" height="32" viewBox="0 0 32 32" fill="none" xmlns="http://www.w3.org/2000/svg">
<g clip-path="url(#clip0)">
<path d="M15.9998 31.8718H15.9934C13.4968 31.8708 11.0215 31.2815 8.80322 30.1633L1.96533 31.7188C1.5481 31.8135 1.11108 31.6882 0.807373 31.3867C0.503662 31.0852 0.375488 30.6492 0.467285 30.2312L1.94897 23.4963C0.676025 21.1455 0.00390625 18.5708 0.000244141 16.0178C0 16.009 0 16.0002 0 15.9917C0.00170899 11.761 1.6748 7.77661 4.71069 4.77271C7.73975 1.77563 11.7488 0.125 15.9995 0.125C20.2598 0.126709 24.2625 1.77881 27.2715 4.77661C30.3223 7.81616 32.0015 11.8037 32 16.0044C31.9988 19.179 31.0469 22.2471 29.2473 24.8767C28.8574 25.4465 28.0796 25.5923 27.5098 25.2024C26.9402 24.8125 26.7942 24.0347 27.1841 23.4648C28.698 21.2524 29.4988 18.6724 29.5 16.0034C29.5012 12.4724 28.0833 9.11426 25.5071 6.54761C22.9697 4.01953 19.593 2.62646 15.999 2.625C8.56665 2.625 2.51562 8.60889 2.5 15.9692C2.5 15.9773 2.50024 15.9851 2.50024 15.9929C2.49927 18.2712 3.14014 20.5813 4.35327 22.6733C4.51025 22.9441 4.56006 23.2637 4.49268 23.5691L3.33228 28.8438L8.69727 27.6233C8.99341 27.5562 9.30396 27.5989 9.57104 27.7437C11.5312 28.8079 13.7522 29.3708 15.9939 29.3718H15.9995C18.4373 29.3718 20.8313 28.7126 22.9226 27.4658C23.5154 27.1121 24.2827 27.3062 24.6362 27.8992C24.9897 28.4922 24.7959 29.2593 24.2029 29.613C21.7246 31.0906 18.8879 31.8718 15.9995 31.8718H15.9998ZM12.4695 9.63867C12.1953 9.03125 11.9067 9.0105 11.646 9H10.9446C10.7004 9 10.304 9.09131 9.96875 9.4563C9.6333 9.82129 8.68774 10.7036 8.68774 12.4983C8.68774 14.293 9.99927 16.0273 10.1821 16.271C10.3652 16.5142 12.7141 20.3147 16.4338 21.7769C19.5254 22.9919 20.1545 22.7502 20.8254 22.6892C21.4966 22.6287 22.991 21.8071 23.2957 20.9553C23.6008 20.1038 23.6008 19.3738 23.5093 19.2212C23.418 19.0693 23.1738 18.978 22.8079 18.7957C22.4417 18.6133 20.6479 17.7156 20.3125 17.594C19.9771 17.4724 19.7332 17.4116 19.489 17.7769C19.2449 18.1416 18.5261 18.9851 18.3125 19.2283C18.0991 19.4722 17.8855 19.5024 17.5195 19.3201C17.1536 19.137 15.9868 18.7451 14.5886 17.5027C13.5005 16.5356 12.7456 15.3027 12.532 14.9375C12.3184 14.5728 12.509 14.375 12.6926 14.1931C12.8569 14.0298 13.0793 13.8064 13.2625 13.5935C13.4451 13.3806 13.4973 13.2285 13.6191 12.9851C13.7412 12.7417 13.6802 12.5288 13.5889 12.3462C13.4973 12.1638 12.7947 10.3599 12.4692 9.63867" fill="white"/>
</g>
<defs>
<clipPath id="clip0">
<rect width="32" height="32" fill="white"/>
</clipPath>
</defs>
</svg>
