<svg width="22" height="22" viewBox="0 0 22 22" fill="none" xmlns="http://www.w3.org/2000/svg">
<path d="M14.3923 5.92126H3.85684C3.67809 5.92126 3.5332 6.06616 3.5332 6.24491C3.5332 6.42366 3.67809 6.56855 3.85684 6.56855H14.3924C14.5711 6.56855 14.716 6.42366 14.716 6.24491C14.716 6.06616 14.5711 5.92126 14.3923 5.92126Z" fill="#00252E"/>
<path d="M3.85684 4.32355H9.12455C9.3033 4.32355 9.4482 4.17866 9.4482 3.99991C9.4482 3.82116 9.3033 3.67627 9.12455 3.67627H3.85684C3.67809 3.67627 3.5332 3.82116 3.5332 3.99991C3.5332 4.1787 3.67809 4.32355 3.85684 4.32355Z" fill="#00252E"/>
<path d="M14.3923 7.91037H3.85684C3.67809 7.91037 3.5332 8.05526 3.5332 8.23401C3.5332 8.41276 3.67809 8.55765 3.85684 8.55765H14.3924C14.5711 8.55765 14.716 8.41276 14.716 8.23401C14.7159 8.05526 14.5711 7.91037 14.3923 7.91037Z" fill="#00252E"/>
<path d="M6.25691 19.7514H2.88528C2.33188 19.7514 1.88161 19.3011 1.88161 18.7477V1.6509C1.88161 1.09751 2.33188 0.647238 2.88528 0.647238H12.5986C12.63 0.647238 12.6609 0.650117 12.6914 0.654242V2.67266C12.6914 3.58299 13.432 4.32356 14.3423 4.32356H16.3607C16.3649 4.35415 16.3677 4.38505 16.3677 4.41641V9.92763C16.3677 10.1064 16.5126 10.2513 16.6914 10.2513C16.8701 10.2513 17.015 10.1064 17.015 9.92763V4.41646C17.015 4.06145 16.8767 3.72767 16.6257 3.4766L13.5384 0.389297C13.2874 0.138273 12.9536 0 12.5986 0H2.88528C1.97494 0 1.23438 0.740609 1.23438 1.6509V18.7477C1.23438 19.658 1.97498 20.3986 2.88528 20.3986H6.25691C6.43566 20.3986 6.58055 20.2537 6.58055 20.075C6.58055 19.8962 6.43566 19.7514 6.25691 19.7514ZM15.9101 3.67632H14.3424C13.789 3.67632 13.3387 3.22605 13.3387 2.67266V1.10498L15.9101 3.67632Z" fill="#00252E"/>
<path d="M20.6662 15.8438L17.924 11.2152C17.7241 10.8778 17.2892 10.7662 16.9515 10.9662L16.2845 11.3614C15.7668 11.6681 15.548 12.2888 15.7257 12.8388C15.501 12.9203 15.2546 12.919 15.0277 12.8313C14.5011 12.6656 14.1007 12.3323 13.4395 12.4995C12.3167 12.7854 12.3508 12.7711 12.2493 12.8059C11.5918 12.4316 11.1967 12.3202 10.4988 12.5902L9.87665 12.8307C9.58863 12.942 9.27127 12.9156 9.00512 12.7579L8.83535 12.6578C8.91819 12.1614 8.69806 11.6376 8.23194 11.3615C8.23194 11.3615 8.23194 11.3615 8.2319 11.3615L7.56494 10.9663C7.22823 10.7669 6.79201 10.8785 6.59255 11.2152L3.85029 15.8439C3.65044 16.1813 3.76164 16.6163 4.0992 16.8162L4.76617 17.2114C4.96799 17.331 5.18979 17.3878 5.40894 17.3878C5.6533 17.3878 5.89422 17.317 6.10022 17.1836L6.23922 17.2657L5.94574 17.6744C5.59602 18.1616 5.70714 18.839 6.1944 19.1888C6.41973 19.3505 6.70281 19.4244 6.99556 19.3784C7.04201 19.65 7.19076 19.9041 7.43165 20.0771C7.65788 20.2395 7.93967 20.3134 8.23293 20.2672C8.27951 20.5385 8.42818 20.7924 8.66893 20.9653C8.99249 21.1976 9.39476 21.2244 9.72996 21.0812C9.80331 21.2718 9.93079 21.4438 10.1086 21.5715C10.573 21.9048 11.2128 21.8179 11.5736 21.3861L12.3535 21.8481C12.8693 22.1537 13.5347 21.9838 13.8405 21.4675C13.9187 21.3355 13.9672 21.1916 13.985 21.0438L13.9867 21.0448C14.5017 21.3498 15.1687 21.1791 15.4738 20.6642C15.5621 20.5151 15.6105 20.3533 15.6223 20.1912C16.0762 20.3053 16.5709 20.1147 16.8214 19.6918C16.9036 19.5531 16.9513 19.4033 16.967 19.2525C17.4535 19.4434 18.0221 19.2589 18.2968 18.7952C18.4446 18.5458 18.4864 18.2538 18.4145 17.9729C18.3734 17.8122 18.2978 17.6663 18.1939 17.5431L18.6238 17.292C18.9874 17.4412 19.4024 17.4173 19.7502 17.2113L20.4171 16.8162C20.7547 16.6164 20.8662 16.1814 20.6662 15.8438ZM5.09608 16.6546L4.42912 16.2594C4.39947 16.2418 4.38963 16.2034 4.40716 16.1737L7.14943 11.545C7.16709 11.5152 7.20563 11.5056 7.23511 11.5231L7.90202 11.9182C8.19838 12.0938 8.29111 12.4739 8.11872 12.7649L5.94274 16.4378C5.76906 16.731 5.3893 16.8282 5.09608 16.6546ZM6.57184 18.663C6.3753 18.5219 6.33036 18.2485 6.47155 18.0519L6.90292 17.451C7.04033 17.2596 7.31417 17.2072 7.51402 17.3507C7.71017 17.4915 7.75516 17.7656 7.61439 17.9618L7.18299 18.5626C7.04218 18.7589 6.76791 18.8037 6.57184 18.663ZM7.80913 19.5513C7.61297 19.4104 7.56799 19.1363 7.70879 18.9402L8.14016 18.3393C8.14016 18.3393 8.14016 18.3393 8.14016 18.3393C8.14016 18.3393 8.14016 18.3392 8.1402 18.3392L8.61625 17.6761C8.68449 17.5811 8.78559 17.5183 8.90101 17.4994C8.92498 17.4955 8.949 17.4935 8.97285 17.4935C9.06368 17.4935 9.15207 17.5218 9.22735 17.5758C9.32231 17.644 9.38513 17.7451 9.40404 17.8605C9.42299 17.976 9.39588 18.0919 9.32764 18.1869L8.42019 19.4509C8.27916 19.6475 8.00575 19.6925 7.80913 19.5513ZM9.04641 20.4395C8.85035 20.2987 8.80531 20.0248 8.94587 19.8287C8.94591 19.8286 8.94599 19.8285 8.94604 19.8284L9.85349 18.5644C9.99422 18.3683 10.2685 18.3233 10.4646 18.464C10.6607 18.6048 10.7057 18.879 10.5649 19.0751L10.1618 19.6368C10.1618 19.6368 10.1618 19.6368 10.1617 19.6368L9.65747 20.3392C9.51666 20.5353 9.24261 20.5804 9.04641 20.4395ZM10.4861 21.0457C10.2901 20.9049 10.245 20.6311 10.3855 20.4349L10.6875 20.0143C10.8283 19.8181 11.1026 19.7732 11.2986 19.914C11.4947 20.0547 11.5398 20.3289 11.399 20.5251L11.0972 20.9453C10.9564 21.1415 10.6822 21.1866 10.4861 21.0457ZM17.7401 18.4653C17.6169 18.6732 17.3478 18.7421 17.1399 18.619C16.7879 18.4105 14.5172 17.0653 14.2751 16.9218C14.1213 16.8307 13.9228 16.8815 13.8318 17.0353C13.7407 17.189 13.7914 17.3876 13.9452 17.4787L16.1109 18.7617L16.111 18.7618C16.3189 18.8849 16.3883 19.1533 16.2646 19.362C16.1415 19.5699 15.8722 19.6387 15.6644 19.5157C14.8633 19.0412 14.2129 18.6558 13.4975 18.2319C13.3436 18.1408 13.1452 18.1916 13.0541 18.3454C12.963 18.4992 13.0137 18.6977 13.1675 18.7888L14.7633 19.7342L14.7636 19.7344C14.9717 19.8579 15.0403 20.1261 14.917 20.3344C14.7938 20.5424 14.5246 20.6112 14.3167 20.4881L13.4602 19.9808C13.4602 19.9807 13.46 19.9807 13.4599 19.9806C13.4599 19.9806 13.4598 19.9805 13.4597 19.9805L12.8347 19.6102C12.6809 19.519 12.4824 19.5698 12.3913 19.7236C12.3002 19.8774 12.351 20.0759 12.5048 20.167L13.1299 20.5373C13.1299 20.5374 13.13 20.5375 13.1301 20.5375C13.338 20.6607 13.4074 20.929 13.2838 21.1377C13.1606 21.3456 12.8914 21.4145 12.6835 21.2914L11.9542 20.8594C12.2668 20.377 12.1479 19.727 11.6761 19.3883C11.5375 19.2889 11.3832 19.227 11.2254 19.2004C11.3928 18.7528 11.2485 18.2302 10.842 17.9384C10.6014 17.7656 10.3133 17.7059 10.0414 17.7485C9.99301 17.4656 9.83828 17.2178 9.60483 17.0502C9.16578 16.7351 8.56912 16.7957 8.20057 17.1685C8.12568 17.037 8.02229 16.919 7.8915 16.8251C7.52665 16.5633 7.05296 16.5608 6.69177 16.7814L6.54348 16.6938L8.57891 13.2581L8.67581 13.3152C9.10378 13.5688 9.62602 13.6216 10.11 13.4344L10.7321 13.1939C11.0881 13.0564 11.2844 13.0474 11.6366 13.2135C11.4062 13.4724 11.2694 13.8122 11.2694 14.1785V15.6134C11.2694 15.9946 11.5792 16.3048 11.9601 16.3051H11.961C12.343 16.3051 12.7022 16.1564 12.9725 15.8863C13.13 15.7289 13.2463 15.5412 13.316 15.3363C13.7338 15.5838 17.1862 17.6282 17.5865 17.8653C17.6872 17.925 17.7586 18.0202 17.7876 18.1336C17.8166 18.2468 17.7997 18.3647 17.7401 18.4653ZM20.0874 16.2594L19.4204 16.6546C19.1271 16.8282 18.7474 16.7309 18.5738 16.4379L17.5539 14.7163C17.4627 14.5625 17.2641 14.5118 17.1105 14.6028C16.9567 14.6939 16.9059 14.8924 16.997 15.0462L18.0169 16.7678C18.0361 16.8002 18.0569 16.831 18.0785 16.861L17.7949 17.0267C17.7376 17.0606 17.6825 17.098 17.6298 17.1386L13.2331 14.5349C13.0177 14.4074 12.7446 14.5628 12.7446 14.8133C12.7412 14.8327 12.778 15.1653 12.5149 15.4284C12.3669 15.5762 12.1702 15.6577 11.961 15.6577C11.9608 15.6577 11.9606 15.6577 11.9605 15.6577C11.9363 15.6577 11.9166 15.6377 11.9166 15.6133V14.1783C11.9166 13.8035 12.1745 13.4872 12.5233 13.3989L13.5982 13.1269C13.9882 13.0283 14.2087 13.2366 14.7927 13.4342C15.1981 13.5911 15.6389 13.5814 16.0302 13.4143L16.2255 13.744C16.3166 13.8979 16.5152 13.9486 16.6689 13.8576C16.8227 13.7665 16.8735 13.5679 16.7824 13.4142L16.3977 12.7648C16.2236 12.471 16.3206 12.0923 16.6144 11.9182L17.2813 11.5231C17.3105 11.5057 17.349 11.5146 17.3671 11.545L20.1092 16.1737C20.1269 16.2035 20.1172 16.2417 20.0874 16.2594Z" fill="#00252E"/>
</svg>
