<svg width="22" height="22" viewBox="0 0 22 22" fill="none" xmlns="http://www.w3.org/2000/svg">
<path d="M18.5917 5.66433C18.3507 5.42334 17.9723 5.3878 17.6905 5.5798C17.0477 6.01796 15.1144 7.33853 13.2552 8.63608C12.3256 9.28491 11.4151 9.92758 10.694 10.4511C9.96713 10.9788 9.44614 11.376 9.28331 11.5389C8.33668 12.4855 8.33668 14.0261 9.28332 14.9728C9.75657 15.446 10.3781 15.6827 11.0003 15.6827C11.6224 15.6827 12.2439 15.446 12.7172 14.9728C12.7173 14.9728 12.7173 14.9728 12.7173 14.9728M18.5917 5.66433L18.8003 6.65003C17.9238 7.93591 13.5164 14.3857 12.8233 15.0789L12.7173 14.9728M18.5917 5.66433L18.6978 5.5583L18.5917 5.66436M18.5917 5.66433C18.5917 5.66434 18.5917 5.66435 18.5917 5.66436M18.5917 5.66433C18.5917 5.66434 18.5917 5.66435 18.5917 5.66436M18.5917 5.66433L18.6763 6.56555M12.7173 14.9728C12.8801 14.8099 13.2773 14.289 13.805 13.5621C14.3285 12.841 14.9712 11.9305 15.62 11.0009C16.9176 9.14173 18.2382 7.20835 18.6763 6.56555M12.7173 14.9728L18.6763 6.56555M18.5917 5.66436C18.8327 5.90544 18.8682 6.2838 18.6763 6.56555M11.714 13.9695L11.7146 13.9689C11.7896 13.893 11.9275 13.7192 12.1101 13.4768C12.2954 13.2307 12.5332 12.9052 12.8113 12.5182C13.3674 11.7443 14.0859 10.7225 14.8692 9.59573L14.6604 9.38695C13.5336 10.1702 12.5118 10.8887 11.7378 11.4449C11.3509 11.7229 11.0253 11.9608 10.7792 12.1461C10.5368 12.3287 10.363 12.4666 10.287 12.5416L10.2864 12.5423C9.89286 12.9359 9.89291 13.576 10.2866 13.9696C10.6802 14.3632 11.3204 14.3632 11.714 13.9695Z" fill="#3D92A7" stroke="white" stroke-width="0.3"/>
<path d="M2.77129 17.8438L2.84056 17.9674L2.96792 17.9053L4.02879 17.3878C4.0288 17.3878 4.02881 17.3878 4.02881 17.3878C4.38098 17.2161 4.80567 17.3623 4.97743 17.7143C5.14921 18.0665 5.00301 18.4911 4.65087 18.6629L2.88916 19.5223C2.78932 19.571 2.68331 19.5942 2.57864 19.5942C2.34789 19.5942 2.12388 19.4816 1.98838 19.279C0.785459 17.4797 0.15 15.397 0.15 13.2558C0.15 10.3574 1.27841 7.63323 3.32786 5.58369C5.3774 3.5342 8.10158 2.40583 11 2.40583C12.5541 2.40583 14.0543 2.72759 15.4598 3.36205C15.8169 3.52325 15.9757 3.94337 15.8145 4.30047C15.6533 4.65748 15.2331 4.81632 14.8762 4.65514L14.8761 4.65513C13.9205 4.22374 12.9135 3.95871 11.873 3.864L11.7094 3.84911V4.01338V5.30657C11.7094 5.69836 11.3918 6.01594 11 6.01594C10.6083 6.01594 10.2907 5.69836 10.2907 5.30657V4.01402V3.84955L10.1269 3.86466C7.09178 4.14459 4.4693 5.86843 2.95376 8.34013L2.86684 8.48187L3.01676 8.55378L4.21696 9.12948L4.21697 9.12948C4.57022 9.29891 4.71921 9.72265 4.54981 10.0759C4.42793 10.33 4.17434 10.4787 3.9096 10.4787C3.80693 10.4787 3.70261 10.4563 3.60338 10.4087L2.38776 9.82561L2.24076 9.7551L2.18272 9.90745C1.78605 10.9486 1.56875 12.0775 1.56875 13.2558C1.56875 14.8647 1.9826 16.4362 2.77129 17.8438Z" fill="#3D92A7" stroke="white" stroke-width="0.3"/>
<path d="M20.8935 8.79603L20.8935 8.79604C21.528 10.2016 21.8497 11.7018 21.8497 13.2558C21.8497 15.397 21.2143 17.4797 20.0113 19.279L20.0113 19.279C19.876 19.4815 19.652 19.5942 19.4211 19.5942C19.3185 19.5942 19.2148 19.572 19.1166 19.5252C19.1166 19.5252 19.1166 19.5252 19.1166 19.5252L17.3119 18.6659C16.9582 18.4974 16.808 18.0741 16.9764 17.7204C17.1449 17.3666 17.5682 17.2165 17.9219 17.3849L19.0295 17.9123L19.1561 17.9727L19.2248 17.8503C20.0158 16.4412 20.431 14.8671 20.431 13.2558C20.431 11.905 20.1516 10.6006 19.6004 9.37974L19.4637 9.44146L19.6004 9.37973C19.4392 9.02268 19.598 8.60255 19.955 8.44134L19.955 8.44134C20.3122 8.28007 20.7323 8.43895 20.8935 8.79603Z" fill="#3D92A7" stroke="white" stroke-width="0.3"/>
</svg>
