<svg width="32" height="32" viewBox="0 0 32 32" fill="none" xmlns="http://www.w3.org/2000/svg">
<g clip-path="url(#clip0)">
<path d="M16.3149 32.0001C16.209 32.0001 16.103 32.0001 15.9963 31.9996C13.488 32.0057 11.1704 31.942 8.9165 31.8048C6.8501 31.679 4.96387 30.9649 3.46143 29.7398C2.01172 28.5577 1.02173 26.9593 0.519043 24.9896C0.081543 23.2747 0.0583496 21.5914 0.0361328 19.9632C0.0200195 18.795 0.00341797 17.4107 0 16.003C0.00341797 14.5894 0.0200195 13.2051 0.0361328 12.0369C0.0583496 10.409 0.081543 8.72563 0.519043 7.01054C1.02173 5.04081 2.01172 3.44242 3.46143 2.26029C4.96387 1.03519 6.8501 0.321078 8.91675 0.195345C11.1707 0.058382 13.4888 -0.00558295 16.0024 0.000520578C18.5115 -0.00485052 20.8284 0.058382 23.0823 0.195345C25.1487 0.321078 27.0349 1.03519 28.5374 2.26029C29.9873 3.44242 30.9771 5.04081 31.4797 7.01054C31.9172 8.72538 31.9404 10.409 31.9626 12.0369C31.9788 13.2051 31.9956 14.5894 31.9988 15.9971C31.9956 17.4107 31.9788 18.795 31.9626 19.9632C31.9534 20.6536 31.3831 21.2054 30.6958 21.1961C30.0054 21.1866 29.4536 20.6192 29.4629 19.929C29.4788 18.7676 29.4956 17.3924 29.4988 15.9971C29.4956 14.6077 29.4788 13.2325 29.4629 12.0711C29.4426 10.5889 29.4216 9.05619 29.0574 7.6287C28.6899 6.18876 27.9834 5.03446 26.9575 4.19779C25.8479 3.29276 24.4929 2.78568 22.9304 2.69071C20.7295 2.55692 18.4639 2.49515 16.0024 2.50028C13.5352 2.49442 11.2693 2.55692 9.06836 2.69071C7.50586 2.78568 6.15112 3.29276 5.04126 4.19755C4.01538 5.03422 3.30884 6.18851 2.94141 7.6287C2.57715 9.05619 2.55615 10.5889 2.53589 12.0711C2.52002 13.2325 2.50342 14.6077 2.5 16.003C2.50342 17.3924 2.52002 18.7676 2.53589 19.929C2.55615 21.4112 2.57715 22.9439 2.94141 24.3714C3.30884 25.8113 4.01538 26.9656 5.04126 27.8023C6.15112 28.7073 7.50586 29.2144 9.06836 29.3094C11.2693 29.4432 13.5356 29.5057 15.9966 29.4996C18.4641 29.5054 20.7295 29.4432 22.9304 29.3094C24.4929 29.2144 25.8477 28.7073 26.9575 27.8023C27.6965 27.1995 28.2739 26.4261 28.6736 25.5032C28.948 24.8699 29.6838 24.5787 30.3174 24.8531C30.9509 25.1275 31.2419 25.8633 30.9678 26.4969C30.4075 27.7906 29.5898 28.8817 28.5374 29.7398C27.0349 30.9651 25.1487 31.679 23.0823 31.8048C20.9238 31.9361 18.7065 32.0001 16.3149 32.0001ZM23.7493 16C23.7493 11.6922 20.2446 8.18754 15.9368 8.18754C11.6292 8.18754 8.12427 11.6922 8.12427 16C8.12427 20.3079 11.6292 23.8126 15.9368 23.8126C20.2446 23.8126 23.7493 20.3079 23.7493 16ZM21.2493 16C21.2493 18.9292 18.8662 21.3126 15.9368 21.3126C13.0076 21.3126 10.6243 18.9292 10.6243 16C10.6243 13.0708 13.0076 10.6875 15.9368 10.6875C18.8662 10.6875 21.2493 13.0708 21.2493 16ZM24.6243 5.68754C23.5889 5.68754 22.7493 6.52689 22.7493 7.56254C22.7493 8.59819 23.5889 9.43754 24.6243 9.43754C25.6599 9.43754 26.4993 8.59819 26.4993 7.56254C26.4993 6.52689 25.6599 5.68754 24.6243 5.68754Z" fill="white"/>
</g>
<defs>
<clipPath id="clip0">
<rect width="32" height="32" fill="white"/>
</clipPath>
</defs>
</svg>
