<svg width="22" height="22" viewBox="0 0 22 22" fill="none" xmlns="http://www.w3.org/2000/svg">
<g clip-path="url(#clip0)">
<path d="M19.3309 4.45439L11.0623 0.0484694C10.9396 -0.0169991 10.7926 -0.0160803 10.6709 0.0507665L2.63111 4.45668C2.49926 4.52904 2.41748 4.66733 2.41748 4.81779V10.5731C2.4223 15.304 5.22528 19.5841 9.55998 21.4794L10.6759 21.9657C10.7802 22.0112 10.899 22.0114 11.0035 21.9662L12.261 21.4231C16.6761 19.5689 19.5484 15.2475 19.5489 10.4589V4.81779C19.5489 4.66572 19.465 4.52583 19.3309 4.45439ZM18.7256 10.4589C18.7247 14.9174 16.0496 18.9404 11.9387 20.6658L11.9359 20.6672L10.8409 21.1399L9.88939 20.7248C5.85446 18.9606 3.24514 14.9769 3.24055 10.5731V5.06152L10.8714 0.879346L18.7256 5.06451V10.4589Z" fill="#00252E"/>
<path d="M7.83425 10.3061C7.68654 10.1332 7.42674 10.1127 7.25376 10.2604C7.08079 10.4079 7.06035 10.6679 7.20805 10.8407L9.38252 13.3871C9.5277 13.5571 9.78199 13.5803 9.9552 13.4392L15.0195 9.31905C15.1959 9.17571 15.2225 8.91636 15.079 8.73994C14.9356 8.56375 14.6763 8.53687 14.4999 8.68044L9.74754 12.5465L7.83425 10.3061Z" fill="#00252E"/>
</g>
<defs>
<clipPath id="clip0">
<rect width="22" height="22" fill="white"/>
</clipPath>
</defs>
</svg>
