<svg width="22" height="22" viewBox="0 0 22 22" fill="none" xmlns="http://www.w3.org/2000/svg">
<path d="M15.4117 3.91016V4.01016H15.5117H21.3531C21.3545 4.01023 21.3566 4.01031 21.3588 4.01032C21.5147 4.01135 21.6424 4.06177 21.7337 4.15151C21.8247 4.24096 21.8883 4.37808 21.9 4.56874V18.7344C21.9 19.7453 21.0773 20.568 20.0664 20.568H1.93359C0.92266 20.568 0.1 19.7453 0.1 18.7344V4.55469C0.1 4.2586 0.341748 4.01016 0.644531 4.01016H6.48828H6.58828V3.91016V3.26562C6.58828 2.25469 7.41094 1.43203 8.42188 1.43203H13.5781C14.5891 1.43203 15.4117 2.25469 15.4117 3.26562V3.91016ZM14.2227 4.01016H14.3227V3.91016V3.26562C14.3227 2.85507 13.9887 2.52109 13.5781 2.52109H8.42188C8.01132 2.52109 7.67734 2.85507 7.67734 3.26562V3.91016V4.01016H7.77734H14.2227ZM20.556 5.23084L20.5999 5.09922H20.4612H1.53882H1.40007L1.44395 5.23084L3.44551 11.2354C3.44551 11.2354 3.44552 11.2354 3.44552 11.2354C3.54692 11.5399 3.83087 11.7445 4.15169 11.7445H7.77734H7.87734V11.6445V11C7.87734 10.6992 8.1211 10.4555 8.42188 10.4555H13.5781C13.8789 10.4555 14.1227 10.6992 14.1227 11V11.6445V11.7445H14.2227H17.8483C18.1691 11.7445 18.4531 11.5399 18.5545 11.2354L20.556 5.23084ZM13.0336 11.6445V11.5445H12.9336H9.06641H8.96641V11.6445V12.9336V13.0336H9.06641H12.9336H13.0336V12.9336V11.6445ZM1.38393 8.49482L1.18906 8.52644V18.7344C1.18906 19.1449 1.52303 19.4789 1.93359 19.4789H20.0664C20.477 19.4789 20.8109 19.1449 20.8109 18.7344V8.52644L20.6161 8.49482L19.5877 11.5798L19.5877 11.5799C19.3378 12.3299 18.6388 12.8336 17.8483 12.8336H14.2227H14.1227V12.9336V13.5781C14.1227 13.8789 13.8789 14.1227 13.5781 14.1227H8.42188C8.1211 14.1227 7.87734 13.8789 7.87734 13.5781V12.9336V12.8336H7.77734H4.15169C3.3612 12.8336 2.66224 12.3299 2.41233 11.5799L2.41233 11.5798L1.38393 8.49482Z" fill="#00252E" stroke="white" stroke-width="0.2"/>
</svg>
