<svg width="22" height="22" viewBox="0 0 22 22" fill="none" xmlns="http://www.w3.org/2000/svg">
<path d="M11 21.9C8.08832 21.9 5.35138 20.7664 3.29251 18.7075C1.23364 16.6486 0.1 13.9117 0.1 11C0.1 8.08832 1.23368 5.35142 3.29251 3.29251C5.35134 1.2336 8.08832 0.1 11 0.1C13.9117 0.1 16.6486 1.23364 18.7075 3.29251C20.7664 5.35138 21.9 8.08832 21.9 11C21.9 13.9117 20.7663 16.6486 18.7075 18.7075C16.6487 20.7664 13.9117 21.9 11 21.9ZM11 1.275C5.63753 1.275 1.275 5.63753 1.275 11C1.275 16.3625 5.63753 20.725 11 20.725C16.3625 20.725 20.725 16.3625 20.725 11C20.725 5.63753 16.3625 1.275 11 1.275Z" fill="#00252E" stroke="white" stroke-width="0.2"/>
<path d="M11.5875 5.57795V5.65772L11.6653 5.67545C12.9969 5.97892 13.9938 7.172 13.9938 8.59375C13.9938 8.9182 13.7307 9.18125 13.4062 9.18125C13.0818 9.18125 12.8187 8.9182 12.8187 8.59375C12.8187 7.5908 12.0029 6.775 11 6.775C9.99705 6.775 9.18125 7.5908 9.18125 8.59375C9.18125 9.5967 9.99705 10.4125 11 10.4125C12.6507 10.4125 13.9938 11.7556 13.9938 13.4062C13.9938 14.828 12.9969 16.0211 11.6653 16.3246L11.5875 16.3423V16.4221V17.1875C11.5875 17.5119 11.3245 17.775 11 17.775C10.6755 17.775 10.4125 17.5119 10.4125 17.1875V16.4221V16.3423L10.3347 16.3246C9.00314 16.0211 8.00625 14.828 8.00625 13.4062C8.00625 13.0818 8.26927 12.8188 8.59375 12.8188C8.91823 12.8188 9.18125 13.0818 9.18125 13.4062C9.18125 14.4092 9.99705 15.225 11 15.225C12.0029 15.225 12.8187 14.4092 12.8187 13.4062C12.8187 12.4033 12.0029 11.5875 11 11.5875C9.34933 11.5875 8.00625 10.2444 8.00625 8.59375C8.00625 7.172 9.00314 5.97892 10.3347 5.67545L10.4125 5.65772V5.57795V4.8125C10.4125 4.48805 10.6755 4.225 11 4.225C11.3245 4.225 11.5875 4.48805 11.5875 4.8125V5.57795Z" fill="#00252E" stroke="white" stroke-width="0.2"/>
</svg>
