<svg width="22" height="22" viewBox="0 0 22 22" fill="none" xmlns="http://www.w3.org/2000/svg">
<g clip-path="url(#clip0)">
<path d="M12.375 22H2.29167C1.0285 22 0 20.9715 0 19.7083V2.29167C0 1.0285 1.0285 0 2.29167 0H12.375C13.6382 0 14.6667 1.0285 14.6667 2.29167V7.79167C14.6667 8.04467 14.4613 8.25 14.2083 8.25C13.9553 8.25 13.75 8.04467 13.75 7.79167V2.29167C13.75 1.53358 13.1331 0.916667 12.375 0.916667H2.29167C1.53358 0.916667 0.916667 1.53358 0.916667 2.29167V19.7083C0.916667 20.4664 1.53358 21.0833 2.29167 21.0833H12.375C13.1331 21.0833 13.75 20.4664 13.75 19.7083V14.2083C13.75 13.9553 13.9553 13.75 14.2083 13.75C14.4613 13.75 14.6667 13.9553 14.6667 14.2083V19.7083C14.6667 20.9715 13.6382 22 12.375 22Z" fill="#00252E"/>
<path d="M21.5418 11.4583H7.79183C7.53883 11.4583 7.3335 11.253 7.3335 11C7.3335 10.747 7.53883 10.5417 7.79183 10.5417H21.5418C21.7948 10.5417 22.0002 10.747 22.0002 11C22.0002 11.253 21.7948 11.4583 21.5418 11.4583Z" fill="#00252E"/>
<path d="M17.8751 15.125C17.7577 15.125 17.6404 15.0801 17.5506 14.9912C17.3718 14.8124 17.3718 14.5218 17.5506 14.3431L20.8936 11L17.5515 7.65783C17.3727 7.47908 17.3727 7.1885 17.5515 7.00975C17.7302 6.831 18.0208 6.831 18.1996 7.00975L21.8662 10.6764C22.045 10.8552 22.045 11.1457 21.8662 11.3245L18.1996 14.9912C18.1097 15.0801 17.9924 15.125 17.8751 15.125Z" fill="#00252E"/>
</g>
<defs>
<clipPath id="clip0">
<rect width="22" height="22" fill="white"/>
</clipPath>
</defs>
</svg>
