<svg width="13" height="15" viewBox="0 0 13 15" fill="none" xmlns="http://www.w3.org/2000/svg">
<path d="M2.42672 3.94737C2.42672 1.7673 4.23751 0 6.47124 0C8.70497 0 10.5158 1.7673 10.5158 3.94737C10.5158 6.12744 8.70497 7.89474 6.47124 7.89474C4.23751 7.89474 2.42672 6.12744 2.42672 3.94737ZM6.47124 6.31579C7.81148 6.31579 8.89796 5.25541 8.89796 3.94737C8.89796 2.63933 7.81148 1.57895 6.47124 1.57895C5.13101 1.57895 4.04453 2.63933 4.04453 3.94737C4.04453 5.25541 5.13101 6.31579 6.47124 6.31579Z" fill="#00252E"/>
<path d="M1.89538 10.5341C0.68179 11.7185 0 13.3249 0 15H1.61781C1.61781 13.7437 2.12915 12.5389 3.03935 11.6505C3.94954 10.7622 5.18403 10.2632 6.47124 10.2632C7.75845 10.2632 8.99294 10.7622 9.90314 11.6505C10.8133 12.5389 11.3247 13.7437 11.3247 15H12.9425C12.9425 13.3249 12.2607 11.7185 11.0471 10.5341C9.83351 9.34962 8.18752 8.68421 6.47124 8.68421C4.75496 8.68421 3.10898 9.34962 1.89538 10.5341Z" fill="#00252E"/>
</svg>
